<?xml version="1.0" encoding="UTF-8"?>
<svg width="64px" height="64px" viewBox="0 0 64 64" version="1.1" xmlns="http://www.w3.org/2000/svg" xmlns:xlink="http://www.w3.org/1999/xlink">
    <!-- Generator: Sketch 51.3 (57544) - http://www.bohemiancoding.com/sketch -->
    <title>prologue-logo-green</title>
    <desc>Created with Sketch.</desc>
    <defs>
        <path d="M15.3986476,53.0126094 C15.1602229,52.8924411 14.9231576,52.7686475 14.6875338,52.6412286 L51.6074638,12.9327879 C52.5040418,14.3346063 53.2633668,15.7988358 53.8854387,17.3063679 L15.3986476,53.0126094 Z M20.2559393,54.9131425 L54.2803181,18.3189497 C57.9303816,28.2469057 55.769939,39.8280408 47.7989899,47.7989899 C40.341303,55.2566768 29.7233926,57.6280609 20.2559395,54.9131423 L20.2559393,54.9131425 Z M10.5138801,49.871747 C10.3363947,49.7294912 10.1602395,49.5847587 9.98546076,49.4375495 L48.0703968,8.47611138 C49.2101765,9.64714968 50.2270843,10.8932563 51.1211205,12.1982465 L10.513877,49.8717445 L10.5138801,49.871747 Z M6.49188877,45.9304304 C6.34514943,45.7548244 6.2008977,45.5778432 6.0591336,45.3995335 L43.7604796,4.85065748 C45.0674172,5.74258756 46.3155783,6.75752251 47.4887511,7.89546232 L6.4918888,45.9304304 Z M3.30564579,41.2137505 C3.17864057,40.9766095 3.05529508,40.7380249 2.93560931,40.4980798 L38.6430224,2.09373584 C40.1528957,2.71330098 41.6196019,3.47036965 43.0239798,4.36494173 L3.30564603,41.2137509 L3.30564579,41.2137505 Z M1.05432401,35.6296915 C-1.60888991,26.1911889 0.773338792,15.6286815 8.20101013,8.20101013 C16.157375,0.244645256 27.7107269,-1.92245637 37.6265385,1.69970524 L1.05432496,35.6296949 L1.05432401,35.6296915 Z" id="path-1"></path>
    </defs>
    <g id="prologue-logo-green" stroke="none" stroke-width="1" fill="none" fill-rule="evenodd">
        <g id="prologue-logo" transform="translate(4.000000, 4.000000)">
            <mask id="mask-2" fill="white">
                <use xlink:href="#path-1"></use>
            </mask>
            <use id="Combined-Shape" fill="#00C764" fill-rule="nonzero" xlink:href="#path-1"></use>
        </g>
    </g>
</svg>